<?xml version="1.0" standalone="no"?>
<!DOCTYPE svg PUBLIC "-//W3C//DTD SVG 20010904//EN"
 "http://www.w3.org/TR/2001/REC-SVG-20010904/DTD/svg10.dtd">
<svg version="1.0" xmlns="http://www.w3.org/2000/svg"
 width="204.000000pt" height="204.000000pt" viewBox="0 0 204.000000 204.000000"
 preserveAspectRatio="xMidYMid meet">
<metadata>
Created by potrace 1.14, written by Peter Selinger 2001-2017
</metadata>
<g transform="translate(0.000000,204.000000) scale(0.100000,-0.100000)"
fill="#000000" stroke="none">
<path d="M891 1649 c-70 -13 -174 -50 -200 -70 -13 -11 -29 -19 -35 -19 -7 0
-27 -16 -46 -35 l-34 -35 0 -142 -1 -143 33 -50 c19 -27 50 -62 70 -76 58 -42
98 -50 311 -64 210 -14 234 -74 87 -217 -53 -52 -75 -67 -91 -62 -60 16 -207
100 -262 149 -65 59 -133 151 -133 182 0 15 -2 15 -9 3 -6 -8 -8 -17 -6 -20 2
-4 9 -35 14 -69 16 -99 71 -200 151 -275 70 -65 243 -186 267 -186 38 0 223
123 284 188 133 142 200 330 144 403 -29 39 -106 81 -170 95 -11 2 -31 6 -45
9 -14 2 -85 12 -159 20 -165 19 -207 29 -225 58 -56 86 119 188 266 155 112
-25 227 -110 324 -242 24 -32 44 -54 45 -50 4 53 -9 300 -17 324 -5 16 -91 74
-160 109 -106 52 -296 81 -403 60z"/>
</g>
</svg>
